<svg xmlns="http://www.w3.org/2000/svg" viewBox="0 0 24 24" role="img">
  <title>Spotify</title>
  <path d="M12 0a12 12 0 1 0 12 12A12.013 12.013 0 0 0 12 0zm5.1 17.39a.75.75 0 0 1-1.02.28c-2.78-1.7-6.28-2.08-10.4-1.13a.75.75 0 0 1-.39-1.43c4.65-1.27 8.46-.81 11.4 1.33a.75.75 0 0 1 .41 1.12zm1.44-3.57a.94.94 0 0 1-1.28.36c-3.18-1.95-8.02-2.53-11.77-1.38a.94.94 0 0 1-.56-1.79c4.4-1.38 9.7-.73 13.38 1.55a.94.94 0 0 1 .23 1.26zm.17-3.59c-3.7-2.17-9.85-2.36-13.22-1.27a1.13 1.13 0 0 1-1.26-1.79c4.14-2.13 11.43-1.85 15.88 1.63a1.13 1.13 0 0 1-1.4 1.43z"/>
</svg>
