<svg
  width="1em"
  height="1em"
  viewBox="0 0 460 460"
  fill="none"
  xmlns="http://www.w3.org/2000/svg"
>
  <path
    d="M335,222.5V109.167c0-8.284-6.716-15-15-15h-70v30h55v93.401L147.965,120.93
       c-4.629-2.848-10.435-2.97-15.179-0.319c-4.743,2.651-7.683,7.66-7.683,13.094V222.5H0v30h125.104v88.794
       c0,5.434,2.939,10.443,7.683,13.094c2.277,1.272,4.798,1.906,7.317,1.906c2.729,0,5.455-0.744,7.861-2.225L305,257.432v108.401h30
       V252.5h125v-30H335z
       M155.104,314.451V160.549L280.148,237.5L155.104,314.451z"
    fill="var(--color-text)"
  />
</svg>
